<mxfile host="app.diagrams.net" modified="2024-02-02T09:09:25.649Z" agent="Mozilla/5.0 (Windows NT 10.0; Win64; x64) AppleWebKit/537.36 (KHTML, like Gecko) Chrome/120.0.0.0 Safari/537.36 Edg/120.0.0.0" etag="3qCosgpFoMYwREmLAjTv" version="22.1.20" type="github">
  <diagram name="第 1 页" id="xV1eEDljwF8GvOP08kd6">
    <mxGraphModel dx="3106" dy="1561" grid="0" gridSize="10" guides="1" tooltips="1" connect="1" arrows="1" fold="1" page="0" pageScale="1" pageWidth="827" pageHeight="1169" math="0" shadow="0">
      <root>
        <mxCell id="0" />
        <mxCell id="1" parent="0" />
        <mxCell id="UFMBhc5R73UeT88bU0Uk-3" style="edgeStyle=none;curved=1;rounded=0;sketch=1;hachureGap=4;jiggle=2;curveFitting=1;orthogonalLoop=1;jettySize=auto;html=1;entryX=0;entryY=0.5;entryDx=0;entryDy=0;fontFamily=Architects Daughter;fontSource=https%3A%2F%2Ffonts.googleapis.com%2Fcss%3Ffamily%3DArchitects%2BDaughter;fontSize=16;startSize=8;endSize=8;" edge="1" parent="1" source="UFMBhc5R73UeT88bU0Uk-1" target="UFMBhc5R73UeT88bU0Uk-2">
          <mxGeometry relative="1" as="geometry" />
        </mxCell>
        <mxCell id="UFMBhc5R73UeT88bU0Uk-1" value="Actor" style="shape=umlActor;verticalLabelPosition=bottom;verticalAlign=top;html=1;outlineConnect=0;sketch=1;hachureGap=4;jiggle=2;curveFitting=1;fontFamily=Architects Daughter;fontSource=https%3A%2F%2Ffonts.googleapis.com%2Fcss%3Ffamily%3DArchitects%2BDaughter;fontSize=20;" vertex="1" parent="1">
          <mxGeometry x="-752" y="-229" width="30" height="60" as="geometry" />
        </mxCell>
        <mxCell id="UFMBhc5R73UeT88bU0Uk-2" value="modelfoundry" style="rounded=1;whiteSpace=wrap;html=1;sketch=1;hachureGap=4;jiggle=2;curveFitting=1;fontFamily=Architects Daughter;fontSource=https%3A%2F%2Ffonts.googleapis.com%2Fcss%3Ffamily%3DArchitects%2BDaughter;fontSize=20;" vertex="1" parent="1">
          <mxGeometry x="-572" y="-227" width="162" height="60" as="geometry" />
        </mxCell>
        <mxCell id="UFMBhc5R73UeT88bU0Uk-4" value="注册" style="text;html=1;align=center;verticalAlign=middle;resizable=0;points=[];autosize=1;strokeColor=none;fillColor=none;fontSize=20;fontFamily=Architects Daughter;" vertex="1" parent="1">
          <mxGeometry x="-669" y="-237" width="58" height="36" as="geometry" />
        </mxCell>
        <mxCell id="UFMBhc5R73UeT88bU0Uk-5" value="database" style="shape=cylinder3;whiteSpace=wrap;html=1;boundedLbl=1;backgroundOutline=1;size=15;sketch=1;hachureGap=4;jiggle=2;curveFitting=1;fontFamily=Architects Daughter;fontSource=https%3A%2F%2Ffonts.googleapis.com%2Fcss%3Ffamily%3DArchitects%2BDaughter;fontSize=20;" vertex="1" parent="1">
          <mxGeometry x="-194" y="-234" width="96" height="80" as="geometry" />
        </mxCell>
        <mxCell id="UFMBhc5R73UeT88bU0Uk-6" style="edgeStyle=none;curved=1;rounded=0;sketch=1;hachureGap=4;jiggle=2;curveFitting=1;orthogonalLoop=1;jettySize=auto;html=1;entryX=-0.062;entryY=0.513;entryDx=0;entryDy=0;entryPerimeter=0;fontFamily=Architects Daughter;fontSource=https%3A%2F%2Ffonts.googleapis.com%2Fcss%3Ffamily%3DArchitects%2BDaughter;fontSize=16;startSize=8;endSize=8;" edge="1" parent="1" source="UFMBhc5R73UeT88bU0Uk-2" target="UFMBhc5R73UeT88bU0Uk-5">
          <mxGeometry relative="1" as="geometry" />
        </mxCell>
        <mxCell id="UFMBhc5R73UeT88bU0Uk-7" value="手机号存数据库" style="edgeLabel;html=1;align=center;verticalAlign=middle;resizable=0;points=[];fontSize=20;fontFamily=Architects Daughter;" vertex="1" connectable="0" parent="UFMBhc5R73UeT88bU0Uk-6">
          <mxGeometry x="0.0948" y="5" relative="1" as="geometry">
            <mxPoint x="-10" y="-2" as="offset" />
          </mxGeometry>
        </mxCell>
        <mxCell id="UFMBhc5R73UeT88bU0Uk-14" style="edgeStyle=none;curved=1;rounded=0;sketch=1;hachureGap=4;jiggle=2;curveFitting=1;orthogonalLoop=1;jettySize=auto;html=1;entryX=0;entryY=0.5;entryDx=0;entryDy=0;fontFamily=Architects Daughter;fontSource=https%3A%2F%2Ffonts.googleapis.com%2Fcss%3Ffamily%3DArchitects%2BDaughter;fontSize=16;startSize=8;endSize=8;" edge="1" parent="1" source="UFMBhc5R73UeT88bU0Uk-8" target="UFMBhc5R73UeT88bU0Uk-9">
          <mxGeometry relative="1" as="geometry" />
        </mxCell>
        <mxCell id="UFMBhc5R73UeT88bU0Uk-8" value="Actor" style="shape=umlActor;verticalLabelPosition=bottom;verticalAlign=top;html=1;outlineConnect=0;sketch=1;hachureGap=4;jiggle=2;curveFitting=1;fontFamily=Architects Daughter;fontSource=https%3A%2F%2Ffonts.googleapis.com%2Fcss%3Ffamily%3DArchitects%2BDaughter;fontSize=20;" vertex="1" parent="1">
          <mxGeometry x="-752" y="188" width="30" height="60" as="geometry" />
        </mxCell>
        <mxCell id="UFMBhc5R73UeT88bU0Uk-9" value="modelfoundry" style="rounded=1;whiteSpace=wrap;html=1;sketch=1;hachureGap=4;jiggle=2;curveFitting=1;fontFamily=Architects Daughter;fontSource=https%3A%2F%2Ffonts.googleapis.com%2Fcss%3Ffamily%3DArchitects%2BDaughter;fontSize=20;" vertex="1" parent="1">
          <mxGeometry x="-577" y="186.5" width="162" height="60" as="geometry" />
        </mxCell>
        <mxCell id="UFMBhc5R73UeT88bU0Uk-10" value="下载模型" style="text;html=1;align=center;verticalAlign=middle;resizable=0;points=[];autosize=1;strokeColor=none;fillColor=none;fontSize=20;fontFamily=Architects Daughter;" vertex="1" parent="1">
          <mxGeometry x="-694" y="176.5" width="98" height="36" as="geometry" />
        </mxCell>
        <mxCell id="UFMBhc5R73UeT88bU0Uk-16" style="edgeStyle=none;curved=1;rounded=0;sketch=1;hachureGap=4;jiggle=2;curveFitting=1;orthogonalLoop=1;jettySize=auto;html=1;entryX=0;entryY=0.5;entryDx=0;entryDy=0;fontFamily=Architects Daughter;fontSource=https%3A%2F%2Ffonts.googleapis.com%2Fcss%3Ffamily%3DArchitects%2BDaughter;fontSize=16;startSize=8;endSize=8;" edge="1" parent="1" source="UFMBhc5R73UeT88bU0Uk-11" target="UFMBhc5R73UeT88bU0Uk-15">
          <mxGeometry relative="1" as="geometry" />
        </mxCell>
        <mxCell id="UFMBhc5R73UeT88bU0Uk-17" value="订阅消息" style="edgeLabel;html=1;align=center;verticalAlign=middle;resizable=0;points=[];fontSize=20;fontFamily=Architects Daughter;" vertex="1" connectable="0" parent="UFMBhc5R73UeT88bU0Uk-16">
          <mxGeometry x="0.0442" relative="1" as="geometry">
            <mxPoint as="offset" />
          </mxGeometry>
        </mxCell>
        <mxCell id="UFMBhc5R73UeT88bU0Uk-11" value="message queue" style="shape=cylinder3;whiteSpace=wrap;html=1;boundedLbl=1;backgroundOutline=1;size=15;sketch=1;hachureGap=4;jiggle=2;curveFitting=1;fontFamily=Architects Daughter;fontSource=https%3A%2F%2Ffonts.googleapis.com%2Fcss%3Ffamily%3DArchitects%2BDaughter;fontSize=20;" vertex="1" parent="1">
          <mxGeometry x="-199" y="179.5" width="96" height="80" as="geometry" />
        </mxCell>
        <mxCell id="UFMBhc5R73UeT88bU0Uk-12" style="edgeStyle=none;curved=1;rounded=0;sketch=1;hachureGap=4;jiggle=2;curveFitting=1;orthogonalLoop=1;jettySize=auto;html=1;entryX=-0.062;entryY=0.513;entryDx=0;entryDy=0;entryPerimeter=0;fontFamily=Architects Daughter;fontSource=https%3A%2F%2Ffonts.googleapis.com%2Fcss%3Ffamily%3DArchitects%2BDaughter;fontSize=16;startSize=8;endSize=8;" edge="1" parent="1" source="UFMBhc5R73UeT88bU0Uk-9" target="UFMBhc5R73UeT88bU0Uk-11">
          <mxGeometry relative="1" as="geometry" />
        </mxCell>
        <mxCell id="UFMBhc5R73UeT88bU0Uk-13" value="邮箱推送消息队列" style="edgeLabel;html=1;align=center;verticalAlign=middle;resizable=0;points=[];fontSize=20;fontFamily=Architects Daughter;" vertex="1" connectable="0" parent="UFMBhc5R73UeT88bU0Uk-12">
          <mxGeometry x="0.0948" y="5" relative="1" as="geometry">
            <mxPoint x="-10" y="-2" as="offset" />
          </mxGeometry>
        </mxCell>
        <mxCell id="UFMBhc5R73UeT88bU0Uk-15" value="统计模块" style="rounded=1;whiteSpace=wrap;html=1;sketch=1;hachureGap=4;jiggle=2;curveFitting=1;fontFamily=Architects Daughter;fontSource=https%3A%2F%2Ffonts.googleapis.com%2Fcss%3Ffamily%3DArchitects%2BDaughter;fontSize=20;" vertex="1" parent="1">
          <mxGeometry x="72" y="192" width="162" height="60" as="geometry" />
        </mxCell>
        <mxCell id="UFMBhc5R73UeT88bU0Uk-18" style="edgeStyle=none;curved=1;rounded=0;sketch=1;hachureGap=4;jiggle=2;curveFitting=1;orthogonalLoop=1;jettySize=auto;html=1;entryX=0;entryY=0.5;entryDx=0;entryDy=0;fontFamily=Architects Daughter;fontSource=https%3A%2F%2Ffonts.googleapis.com%2Fcss%3Ffamily%3DArchitects%2BDaughter;fontSize=16;startSize=8;endSize=8;" edge="1" parent="1" source="UFMBhc5R73UeT88bU0Uk-19" target="UFMBhc5R73UeT88bU0Uk-20">
          <mxGeometry relative="1" as="geometry" />
        </mxCell>
        <mxCell id="UFMBhc5R73UeT88bU0Uk-19" value="Actor" style="shape=umlActor;verticalLabelPosition=bottom;verticalAlign=top;html=1;outlineConnect=0;sketch=1;hachureGap=4;jiggle=2;curveFitting=1;fontFamily=Architects Daughter;fontSource=https%3A%2F%2Ffonts.googleapis.com%2Fcss%3Ffamily%3DArchitects%2BDaughter;fontSize=20;" vertex="1" parent="1">
          <mxGeometry x="-752" y="-15" width="30" height="60" as="geometry" />
        </mxCell>
        <mxCell id="UFMBhc5R73UeT88bU0Uk-20" value="modelfoundry" style="rounded=1;whiteSpace=wrap;html=1;sketch=1;hachureGap=4;jiggle=2;curveFitting=1;fontFamily=Architects Daughter;fontSource=https%3A%2F%2Ffonts.googleapis.com%2Fcss%3Ffamily%3DArchitects%2BDaughter;fontSize=20;" vertex="1" parent="1">
          <mxGeometry x="-572" y="-13" width="162" height="60" as="geometry" />
        </mxCell>
        <mxCell id="UFMBhc5R73UeT88bU0Uk-21" value="绑定邮箱" style="text;html=1;align=center;verticalAlign=middle;resizable=0;points=[];autosize=1;strokeColor=none;fillColor=none;fontSize=20;fontFamily=Architects Daughter;" vertex="1" parent="1">
          <mxGeometry x="-689" y="-23" width="98" height="36" as="geometry" />
        </mxCell>
        <mxCell id="UFMBhc5R73UeT88bU0Uk-22" value="database" style="shape=cylinder3;whiteSpace=wrap;html=1;boundedLbl=1;backgroundOutline=1;size=15;sketch=1;hachureGap=4;jiggle=2;curveFitting=1;fontFamily=Architects Daughter;fontSource=https%3A%2F%2Ffonts.googleapis.com%2Fcss%3Ffamily%3DArchitects%2BDaughter;fontSize=20;" vertex="1" parent="1">
          <mxGeometry x="-194" y="-20" width="96" height="80" as="geometry" />
        </mxCell>
        <mxCell id="UFMBhc5R73UeT88bU0Uk-23" style="edgeStyle=none;curved=1;rounded=0;sketch=1;hachureGap=4;jiggle=2;curveFitting=1;orthogonalLoop=1;jettySize=auto;html=1;entryX=-0.062;entryY=0.513;entryDx=0;entryDy=0;entryPerimeter=0;fontFamily=Architects Daughter;fontSource=https%3A%2F%2Ffonts.googleapis.com%2Fcss%3Ffamily%3DArchitects%2BDaughter;fontSize=16;startSize=8;endSize=8;" edge="1" parent="1" source="UFMBhc5R73UeT88bU0Uk-20" target="UFMBhc5R73UeT88bU0Uk-22">
          <mxGeometry relative="1" as="geometry" />
        </mxCell>
        <mxCell id="UFMBhc5R73UeT88bU0Uk-24" value="邮箱存数据库" style="edgeLabel;html=1;align=center;verticalAlign=middle;resizable=0;points=[];fontSize=20;fontFamily=Architects Daughter;" vertex="1" connectable="0" parent="UFMBhc5R73UeT88bU0Uk-23">
          <mxGeometry x="0.0948" y="5" relative="1" as="geometry">
            <mxPoint x="-10" y="-2" as="offset" />
          </mxGeometry>
        </mxCell>
      </root>
    </mxGraphModel>
  </diagram>
</mxfile>
